<?xml version="1.0" encoding="utf-8"?>
<!-- Generator: Adobe Illustrator 16.0.0, SVG Export Plug-In . SVG Version: 6.00 Build 0)  -->
<!DOCTYPE svg PUBLIC "-//W3C//DTD SVG 1.1//EN" "http://www.w3.org/Graphics/SVG/1.1/DTD/svg11.dtd">
<svg version="1.1" id="Layer_1" xmlns="http://www.w3.org/2000/svg" xmlns:xlink="http://www.w3.org/1999/xlink" x="0px" y="0px"
	 width="16px" height="16px" viewBox="0 0 16 16" enable-background="new 0 0 16 16" xml:space="preserve">
<g>
	<path fill="#ffffff" d="M2,3C1.447,3,1,3.448,1,4v8c0,0.553,0.448,1,1,1s1-0.447,1-1V4C3,3.448,2.552,3,2,3z"/>
	<path fill="#ffffff" d="M5,5C4.447,5,4,5.448,4,6v4c0,0.553,0.448,1,1,1s1-0.447,1-1V6C6,5.448,5.552,5,5,5z"/>
	<path fill="#ffffff" d="M8,0C7.447,0,7,0.448,7,1v14c0,0.553,0.448,1,1,1c0.553,0,1-0.447,1-1V1C9,0.448,8.553,0,8,0z"/>
	<path fill="#ffffff" d="M11,2.5c-0.553,0-1,0.448-1,1v9c0,0.553,0.447,1,1,1s1-0.447,1-1v-9C12,2.948,11.553,2.5,11,2.5z"/>
	<path fill="#ffffff" d="M14,5c-0.553,0-1,0.448-1,1v4c0,0.553,0.447,1,1,1s1-0.447,1-1V6C15,5.448,14.553,5,14,5z"/>
</g>
</svg>
