<?xml version="1.0" encoding="utf-8"?>
<!-- Generator: Adobe Illustrator 16.0.0, SVG Export Plug-In . SVG Version: 6.00 Build 0)  -->
<!DOCTYPE svg PUBLIC "-//W3C//DTD SVG 1.1//EN" "http://www.w3.org/Graphics/SVG/1.1/DTD/svg11.dtd">
<svg version="1.1" id="Layer_1" xmlns="http://www.w3.org/2000/svg" xmlns:xlink="http://www.w3.org/1999/xlink" x="0px" y="0px"
	 width="16px" height="16px" viewBox="0 0 16 16" enable-background="new 0 0 16 16" xml:space="preserve">
<g>
	<path fill="#ffffff" d="M8.012,7.376c0.344,0,0.622,0.278,0.622,0.621c0,0.343-0.278,0.622-0.622,0.622
		c-0.341,0-0.62-0.278-0.62-0.622C7.392,7.654,7.67,7.376,8.012,7.376z"/>
	<path fill="#ffffff" d="M8.012-0.005c-4.411,0-7.986,3.583-7.986,8.002S3.601,16,8.012,16C12.424,16,16,12.417,16,7.997
		S12.424-0.005,8.012-0.005z M2.372,5.063c-0.065,0-0.131-0.018-0.19-0.055C2.021,4.903,1.974,4.686,2.079,4.524
		c0.913-1.411,2.289-2.482,3.874-3.018c0.183-0.063,0.38,0.037,0.441,0.22C6.455,1.91,6.357,2.108,6.174,2.169
		c-1.435,0.485-2.682,1.456-3.51,2.735C2.598,5.008,2.486,5.063,2.372,5.063z M3.458,5.996c-0.063,0-0.128-0.018-0.185-0.054
		C3.11,5.84,3.06,5.625,3.162,5.46c0.813-1.303,2.064-2.266,3.526-2.71c0.183-0.057,0.379,0.048,0.435,0.232
		c0.056,0.185-0.048,0.38-0.233,0.436c-1.3,0.395-2.414,1.252-3.136,2.412C3.688,5.937,3.574,5.996,3.458,5.996z M4.958,6.399
		c-0.067,0.1-0.177,0.154-0.289,0.154c-0.067,0-0.135-0.019-0.195-0.06C4.313,6.385,4.272,6.168,4.38,6.008
		c0.613-0.909,1.519-1.601,2.552-1.949c0.184-0.062,0.38,0.037,0.442,0.22c0.061,0.183-0.037,0.381-0.22,0.443
		C6.266,5.021,5.485,5.617,4.958,6.399z M5.687,7.997c0-1.286,1.041-2.33,2.325-2.33c1.286,0,2.327,1.043,2.327,2.33
		c0,1.288-1.042,2.332-2.327,2.332C6.728,10.329,5.687,9.285,5.687,7.997z M8.019,11.874c-0.036-0.19,0.089-0.373,0.279-0.408
		c1.105-0.209,2.105-0.862,2.746-1.796c0.107-0.159,0.325-0.199,0.485-0.09c0.159,0.109,0.198,0.327,0.089,0.486
		c-0.744,1.084-1.906,1.844-3.191,2.086c-0.021,0.005-0.042,0.006-0.065,0.006C8.197,12.158,8.051,12.042,8.019,11.874z
		 M8.271,13.171c-0.036-0.188,0.089-0.372,0.278-0.409c1.411-0.268,2.657-1.063,3.505-2.235c0.112-0.155,0.33-0.191,0.487-0.078
		c0.156,0.113,0.19,0.331,0.077,0.488c-0.952,1.318-2.353,2.211-3.939,2.513c-0.022,0.005-0.043,0.006-0.065,0.006
		C8.449,13.456,8.303,13.339,8.271,13.171z M13.771,11.552c-1.12,1.757-2.934,2.972-4.973,3.332
		c-0.02,0.004-0.041,0.005-0.061,0.005c-0.167,0-0.313-0.118-0.345-0.288c-0.032-0.19,0.094-0.371,0.283-0.404
		c1.849-0.327,3.492-1.429,4.508-3.021c0.104-0.162,0.32-0.209,0.481-0.105C13.828,11.173,13.875,11.388,13.771,11.552z"/>
</g>
</svg>
