<?xml version="1.0" encoding="utf-8"?>
<!-- Generator: Adobe Illustrator 16.0.0, SVG Export Plug-In . SVG Version: 6.00 Build 0)  -->
<!DOCTYPE svg PUBLIC "-//W3C//DTD SVG 1.1//EN" "http://www.w3.org/Graphics/SVG/1.1/DTD/svg11.dtd">
<svg version="1.1" id="Layer_1" xmlns="http://www.w3.org/2000/svg" xmlns:xlink="http://www.w3.org/1999/xlink" x="0px" y="0px"
	 width="16px" height="16px" viewBox="0 0 16 16" enable-background="new 0 0 16 16" xml:space="preserve">
<g>
	<g>
		<g>
			<path fill="#ffffff" d="M14.281,0H1.718C0.773,0,0,0.772,0,1.719v12.563C0,15.227,0.773,16,1.718,16h12.563
				C15.227,16,16,15.227,16,14.281V1.719C16,0.772,15.227,0,14.281,0z M5.243,1.188h5.511v1.425H5.243V1.188z M14.514,14.354H1.485
				V3.973h13.029V14.354L14.514,14.354z"/>
			<rect x="2.8" y="8.697" fill="#ffffff" width="1.718" height="1.719"/>
			<rect x="2.8" y="11.418" fill="#ffffff" width="1.718" height="1.719"/>
			<rect x="5.682" y="5.977" fill="#ffffff" width="1.717" height="1.718"/>
			<rect x="5.682" y="8.697" fill="#ffffff" width="1.717" height="1.719"/>
			<rect x="5.682" y="11.418" fill="#ffffff" width="1.717" height="1.719"/>
			<rect x="8.561" y="5.977" fill="#ffffff" width="1.719" height="1.718"/>
			<rect x="8.561" y="8.697" fill="#ffffff" width="1.719" height="1.719"/>
			<rect x="8.561" y="11.418" fill="#ffffff" width="1.719" height="1.719"/>
			<rect x="11.441" y="5.977" fill="#ffffff" width="1.719" height="1.718"/>
			<rect x="11.441" y="8.697" fill="#ffffff" width="1.719" height="1.719"/>
		</g>
	</g>
</g>
</svg>
