<?xml version="1.0" encoding="utf-8"?>
<!-- Generator: Adobe Illustrator 16.0.0, SVG Export Plug-In . SVG Version: 6.00 Build 0)  -->
<!DOCTYPE svg PUBLIC "-//W3C//DTD SVG 1.1//EN" "http://www.w3.org/Graphics/SVG/1.1/DTD/svg11.dtd">
<svg version="1.1" id="Layer_1" xmlns="http://www.w3.org/2000/svg" xmlns:xlink="http://www.w3.org/1999/xlink" x="0px" y="0px"
	 width="16px" height="16px" viewBox="0 0 16 16" enable-background="new 0 0 16 16" xml:space="preserve">
<g>
	<g>
		<path fill="#ffffff" d="M6.164,10.302L5.918,11.76c-0.033,0.199,0.049,0.4,0.212,0.52c0.164,0.117,0.38,0.134,0.559,0.041
			L8,11.636l1.31,0.685c0.077,0.04,0.163,0.061,0.247,0.061c0.109,0,0.22-0.035,0.312-0.102c0.164-0.119,0.246-0.32,0.212-0.52
			l-0.245-1.458l1.056-1.035c0.144-0.141,0.195-0.351,0.134-0.544c-0.062-0.192-0.229-0.332-0.429-0.361L9.134,8.145L8.476,6.82
			C8.386,6.64,8.201,6.526,7.999,6.526c-0.201,0-0.386,0.113-0.477,0.294L6.864,8.145L5.402,8.361
			C5.203,8.39,5.037,8.531,4.975,8.723C4.912,8.916,4.963,9.126,5.107,9.267L6.164,10.302z"/>
		<path fill="#ffffff" d="M14.283,1.705h-1.674V0.777c0-0.427-0.346-0.772-0.772-0.772h-0.122c-0.426,0-0.771,0.346-0.771,0.772
			v0.928H5.036V0.777c0-0.427-0.346-0.772-0.771-0.772H4.142c-0.426,0-0.771,0.346-0.771,0.772v0.928H1.716
			c-0.876,0-1.589,0.712-1.589,1.588v11.118C0.127,15.287,0.84,16,1.716,16h12.567c0.876,0,1.589-0.713,1.589-1.589V3.293
			C15.872,2.417,15.159,1.705,14.283,1.705z M14.076,14.204H1.922V5.549h12.154V14.204z"/>
	</g>
</g>
</svg>
