<?xml version="1.0" encoding="utf-8"?>
<!-- Generator: Adobe Illustrator 16.0.0, SVG Export Plug-In . SVG Version: 6.00 Build 0)  -->
<!DOCTYPE svg PUBLIC "-//W3C//DTD SVG 1.1//EN" "http://www.w3.org/Graphics/SVG/1.1/DTD/svg11.dtd">
<svg version="1.1" id="Layer_1" xmlns="http://www.w3.org/2000/svg" xmlns:xlink="http://www.w3.org/1999/xlink" x="0px" y="0px"
	 width="16px" height="16px" viewBox="0 0 16 16" enable-background="new 0 0 16 16" xml:space="preserve">
<g>
	<g>
		<g>
			<g>
				<path fill="#ffffff" d="M14.002,11.998c-1.006,0-1.837,0.746-1.976,1.713v0.57c0.139,0.969,0.97,1.715,1.976,1.715
					c1.102,0,1.998-0.896,1.998-2C16,12.895,15.104,11.998,14.002,11.998z M8.231,10.117c1.058,0,1.931-0.803,2.045-1.832h-4.09
					C6.299,9.314,7.173,10.117,8.231,10.117z M8.231,6.001c-1.017,0-1.862,0.743-2.026,1.714h4.053
					C10.093,6.744,9.248,6.001,8.231,6.001z M2.579,0.004c-1.102,0-1.999,0.897-1.999,1.999s0.897,1.999,1.999,1.999
					c1.005,0,1.836-0.746,1.976-1.713V1.717C4.416,0.75,3.584,0.004,2.579,0.004z"/>
			</g>
		</g>
	</g>
	<path fill="#ffffff" d="M16,8c0,0.18-0.146,0.326-0.325,0.326H0.325C0.146,8.326,0,8.18,0,8l0,0c0-0.18,0.146-0.326,0.325-0.326
		h15.35C15.854,7.674,16,7.82,16,8L16,8z"/>
	<path fill="#ffffff" d="M16,13.997c0,0.18-0.146,0.326-0.325,0.326H0.325C0.146,14.323,0,14.177,0,13.997l0,0
		c0-0.18,0.146-0.326,0.325-0.326h15.35C15.854,13.671,16,13.817,16,13.997L16,13.997z"/>
	<path fill="#ffffff" d="M16,2.003c0,0.18-0.146,0.326-0.325,0.326H0.325C0.146,2.33,0,2.183,0,2.003l0,0
		c0-0.18,0.146-0.326,0.325-0.326h15.35C15.854,1.677,16,1.824,16,2.003L16,2.003z"/>
</g>
</svg>
