<?xml version="1.0" encoding="utf-8"?>
<!-- Generator: Adobe Illustrator 16.0.0, SVG Export Plug-In . SVG Version: 6.00 Build 0)  -->
<!DOCTYPE svg PUBLIC "-//W3C//DTD SVG 1.1//EN" "http://www.w3.org/Graphics/SVG/1.1/DTD/svg11.dtd">
<svg version="1.1" id="Layer_1" xmlns="http://www.w3.org/2000/svg" xmlns:xlink="http://www.w3.org/1999/xlink" x="0px" y="0px"
	 width="16px" height="16px" viewBox="0 0 16 16" enable-background="new 0 0 16 16" xml:space="preserve">
<g>
	<g>
		<path fill="#ffffff" d="M15.912,13.276c-0.045-0.123-0.199-0.123-0.248-0.123c-0.285,0-0.953,0.163-1.754,0.427
			c-0.047-0.028-0.098-0.048-0.152-0.061c-0.768-1.692-1.104-2.622-1.574-4.373c0.676-0.323,1.107-0.807,1.281-1.442
			c0.588-2.12-1.91-5.191-2.018-5.321l-0.1-0.121L8,3.458L4.654,2.263l-0.1,0.121C4.448,2.513,1.949,5.579,2.536,7.705
			C2.711,8.34,3.142,8.823,3.818,9.146c-0.471,1.751-0.806,2.681-1.573,4.373c-0.056,0.013-0.106,0.032-0.152,0.061
			c-0.8-0.266-1.468-0.427-1.753-0.427c-0.051,0-0.205,0-0.25,0.123l-0.043,0.12l4.699,1.679l0.043-0.119
			c0.035-0.097,0.115-0.321-1.742-1.034c-0.019-0.052-0.045-0.099-0.08-0.145c0.479-1.795,0.81-2.729,1.555-4.379
			c0.727,0.179,1.371,0.076,1.906-0.302C7.318,8.466,7.771,7.183,8,6.024c0.23,1.158,0.683,2.441,1.576,3.072
			c0.533,0.378,1.178,0.481,1.904,0.302c0.744,1.652,1.074,2.584,1.555,4.379c-0.035,0.046-0.063,0.093-0.08,0.145
			c-1.855,0.711-1.777,0.938-1.742,1.034l0.043,0.119l4.699-1.679L15.912,13.276z M8.237,3.851l2.962-1.058
			c0.211,0.273,0.799,1.07,1.27,2.01c-0.244,0.167-0.664,0.351-1.705-0.202C9.684,4.028,8.728,4.753,8.32,5.146
			c-0.052-0.4-0.079-0.752-0.093-1.006C8.232,4.022,8.235,3.924,8.237,3.851z M7.713,4.883c-0.205,0.343-0.636,0.646-1.521,0.06
			C5.132,4.239,4.223,4.351,3.69,4.504c0.436-0.806,0.925-1.468,1.113-1.712L7.764,3.85c0.001,0.073,0.005,0.171,0.011,0.289
			C7.764,4.335,7.745,4.59,7.713,4.883z"/>
		<path fill="#ffffff" d="M6.848,2.549c0.051,0.05,0.116,0.075,0.181,0.075c0.066,0,0.131-0.025,0.182-0.075
			c0.1-0.1,0.1-0.262,0-0.362L6.603,1.579c-0.1-0.1-0.262-0.1-0.362,0c-0.101,0.1-0.1,0.262,0,0.362L6.848,2.549z"/>
		<path fill="#ffffff" d="M7.398,2.079c0.03,0.114,0.134,0.189,0.247,0.189c0.022,0,0.045-0.003,0.067-0.008
			C7.849,2.223,7.93,2.083,7.893,1.946L7.67,1.116C7.634,0.979,7.493,0.898,7.357,0.934C7.22,0.971,7.139,1.111,7.176,1.248
			L7.398,2.079z"/>
		<path fill="#ffffff" d="M8.29,2.26c0.022,0.005,0.044,0.008,0.067,0.008c0.113,0,0.216-0.076,0.247-0.189l0.223-0.831
			c0.038-0.137-0.044-0.277-0.181-0.314C8.509,0.898,8.369,0.979,8.332,1.116L8.109,1.946C8.073,2.083,8.153,2.223,8.29,2.26z"/>
		<path fill="#ffffff" d="M8.791,2.548c0.05,0.05,0.116,0.075,0.181,0.075c0.065,0,0.131-0.026,0.182-0.075L9.762,1.94
			c0.1-0.1,0.1-0.261,0-0.362c-0.1-0.1-0.262-0.1-0.363,0L8.791,2.186C8.689,2.287,8.689,2.448,8.791,2.548z"/>
	</g>
</g>
</svg>
